<?xml version="1.0" encoding="UTF-8" standalone="no"?>
<svg
   id="svg20"
   xml:space="preserve"
   viewBox="0 0 700 250"
   y="0px"
   x="0px"
   version="1.1"
   sodipodi:docname="brandmark-design (1).svg"
   width="700"
   height="250"
   inkscape:version="1.3 (0e150ed6c4, 2023-07-21)"
   xmlns:inkscape="http://www.inkscape.org/namespaces/inkscape"
   xmlns:sodipodi="http://sodipodi.sourceforge.net/DTD/sodipodi-0.dtd"
   xmlns="http://www.w3.org/2000/svg"
   xmlns:svg="http://www.w3.org/2000/svg"
   xmlns:rdf="http://www.w3.org/1999/02/22-rdf-syntax-ns#"
   xmlns:cc="http://creativecommons.org/ns#"
   xmlns:dc="http://purl.org/dc/elements/1.1/"><sodipodi:namedview
     id="namedview1"
     pagecolor="#ffffff"
     bordercolor="#000000"
     borderopacity="0.25"
     inkscape:showpageshadow="2"
     inkscape:pageopacity="0.0"
     inkscape:pagecheckerboard="0"
     inkscape:deskcolor="#d1d1d1"
     inkscape:zoom="0.74674479"
     inkscape:cx="638.10288"
     inkscape:cy="445.26591"
     inkscape:window-width="5120"
     inkscape:window-height="1361"
     inkscape:window-x="-9"
     inkscape:window-y="-9"
     inkscape:window-maximized="1"
     inkscape:current-layer="svg20" /><metadata
     id="metadata26"><rdf:RDF><cc:Work
         rdf:about=""><dc:format>image/svg+xml</dc:format><dc:type
           rdf:resource="http://purl.org/dc/dcmitype/StillImage" /></cc:Work></rdf:RDF></metadata><defs
     id="defs24" /><g
     transform="matrix(1.5250928,0,0,1.6581865,-369.54281,-528.64353)"
     id="logo-group"><path
       stroke-miterlimit="2"
       d="m 366.2,383.73 h -5.6909 V 340.3 H 366.2 q 11.082,0 17.672,5.8406 6.5894,5.8406 6.5894,15.875 0,10.0344 -6.5894,15.875 -6.5894,5.8406 -17.672,5.8406 z m 0,-2.2464 q 10.109,0 16.024,-5.1667 5.9904,-5.1667 5.9904,-14.302 0,-9.1354 -5.9904,-14.302 -5.9155,-5.1667 -16.024,-5.1667 h -3.4445 v 38.938 z"
       style="font-variant-ligatures:none;fill:#ffffff;stroke:#ffffff;stroke-width:0.52;stroke-miterlimit:2"
       id="path44167" /><path
       stroke-miterlimit="2"
       d="M 436.9,340.3 418.18,384.479 399.46,340.3 h 2.3962 l 16.324,38.413 16.324,-38.413 z"
       style="font-variant-ligatures:none;fill:#ffffff;stroke:#ffffff;stroke-width:0.52;stroke-miterlimit:2"
       id="path44169" /><path
       stroke-miterlimit="2"
       d="m 477.68,379.31 q -4.1184,5.1667 -13.478,5.1667 -9.36,0 -13.404,-5.3165 -4.0435,-5.3165 -4.0435,-17.148 0,-11.831 4.0435,-17.148 4.0435,-5.3165 13.404,-5.3165 10.858,0 14.751,7.1136 l -18.346,15.35 h -3.5194 l 18.945,-15.8 q -3.2947,-4.4179 -11.831,-4.4179 -3.744,0 -6.2899,0.82368 -2.5459,0.7488 -4.7174,2.9203 -2.0966,2.0966 -3.145,6.215 -1.0483,4.0435 -1.0483,10.259 0,6.215 1.0483,10.333 1.0483,4.0435 3.145,6.215 2.1715,2.0966 4.7174,2.9203 2.5459,0.7488 6.2899,0.7488 8.5363,0 11.831,-4.4179 z"
       style="font-variant-ligatures:none;fill:#ffffff;stroke:#ffffff;stroke-width:0.52;stroke-miterlimit:2"
       id="path44171" /><path
       stroke-miterlimit="2"
       d="M 493.05,383.73 V 340.3 h 2.2464 l 24.411,39.312 V 340.3 h 2.2464 v 43.43 h -2.2464 l -24.411,-39.387 v 39.387 z"
       style="font-variant-ligatures:none;fill:#ffffff;stroke:#ffffff;stroke-width:0.52;stroke-miterlimit:2"
       id="path44173" /><path
       stroke-miterlimit="2"
       d="m 567.6,340.3 v 2.2464 h -15.725 v 41.184 h -2.2464 v -41.184 h -15.725 V 340.3 Z"
       style="font-variant-ligatures:none;fill:#ffffff;stroke:#ffffff;stroke-width:0.52;stroke-miterlimit:2"
       id="path44175" /><path
       stroke-miterlimit="2"
       d="m 581.06,340.3 v 21.715 q 0,11.157 3.5194,15.725 3.5942,4.4928 9.8093,4.4928 6.215,0 9.7344,-4.4928 3.5942,-4.5677 3.5942,-15.725 V 340.3 h 2.2464 v 21.715 q 0,22.464 -15.575,22.464 -15.575,0 -15.575,-22.464 V 340.3 Z"
       style="font-variant-ligatures:none;fill:#ffffff;stroke:#ffffff;stroke-width:0.52;stroke-miterlimit:2"
       id="path44177" /><path
       stroke-miterlimit="2"
       d="m 645.03,361.94 10.184,21.79 h -2.471 L 642.26,361.266 q 0.14976,-0.0749 1.273,-0.59904 1.1981,-0.59904 1.6474,-0.82368 0.44928,-0.29952 1.4976,-0.97344 1.04832,-0.67392 1.5725,-1.273 0.52416,-0.67392 1.1232,-1.4976 0.67392,-0.89856 0.97344,-1.9469 0.29952,-1.1232 0.29952,-2.3962 0,-4.7174 -4.4928,-6.9638 -4.4928,-2.2464 -11.157,-2.2464 h -5.9904 v 41.184 h -2.2464 v -43.43 h 8.2368 q 8.8358,0 13.329,3.0701 4.5677,3.0701 4.5677,8.3866 0,3.4445 -2.3213,6.1402 -2.3213,2.6208 -5.5411,4.0435 z"
       style="font-variant-ligatures:none;fill:#ffffff;stroke:#ffffff;stroke-width:0.52;stroke-miterlimit:2"
       id="path44179" /><path
       stroke-miterlimit="2"
       d="m 697.75,379.31 q -4.1184,5.1667 -13.478,5.1667 -9.36,0 -13.404,-5.3165 -4.0435,-5.3165 -4.0435,-17.148 0,-11.831 4.0435,-17.148 4.0435,-5.3165 13.404,-5.3165 10.858,0 14.751,7.1136 l -18.346,15.35 h -3.5194 l 18.945,-15.8 q -3.2947,-4.4179 -11.831,-4.4179 -3.744,0 -6.2899,0.82368 -2.5459,0.7488 -4.7174,2.9203 -2.0966,2.0966 -3.145,6.215 -1.0483,4.0435 -1.0483,10.259 0,6.215 1.0483,10.333 1.0483,4.0435 3.145,6.215 2.1715,2.0966 4.7174,2.9203 2.5459,0.7488 6.2899,0.7488 8.5363,0 11.831,-4.4179 z"
       style="font-variant-ligatures:none;fill:#ffffff;stroke:#ffffff;stroke-width:0.52;stroke-miterlimit:2"
       id="path44181" /><path
       stroke-miterlimit="2"
       d="m 390.3,399.15 q 9.2851,0 13.179,4.1184 l -1.4976,1.6474 q -3.5942,-3.5194 -11.382,-3.5194 -11.681,0 -11.681,9.2851 0,3.5942 2.8454,5.7658 2.8454,2.0966 6.889,3.2198 4.1184,1.1232 8.1619,2.3962 4.1184,1.1981 6.9638,3.9686 2.8454,2.6957 2.8454,7.1136 0,5.1667 -4.2682,8.2368 -4.2682,3.0701 -12.355,3.0701 -3.9686,0 -7.8624,-1.0483 -3.8189,-1.0483 -5.6909,-3.0701 l 1.4976,-1.6474 q 3.8189,3.5194 11.756,3.5194 7.2634,0 10.932,-2.6957 3.744,-2.6957 3.744,-6.2899 0,-3.744 -2.8454,-6.0653 -2.8454,-2.3213 -6.9638,-3.4445 -4.0435,-1.1981 -8.1619,-2.3962 -4.0435,-1.273 -6.889,-3.8938 -2.8454,-2.6208 -2.8454,-6.889 0,-5.7658 3.8189,-8.5363 3.8938,-2.8454 9.8093,-2.8454 z"
       style="font-variant-ligatures:none;fill:#87ccc1;stroke:#87ccc1;stroke-width:0.52;stroke-miterlimit:2"
       id="path44183" /><path
       stroke-miterlimit="2"
       d="m 432.39,399.15 q 9.2851,0 13.179,4.1184 l -1.4976,1.6474 q -3.5942,-3.5194 -11.382,-3.5194 -11.681,0 -11.681,9.2851 0,3.5942 2.8454,5.7658 2.8454,2.0966 6.889,3.2198 4.1184,1.1232 8.1619,2.3962 4.1184,1.1981 6.9638,3.9686 2.8454,2.6957 2.8454,7.1136 0,5.1667 -4.2682,8.2368 -4.2682,3.0701 -12.355,3.0701 -3.9686,0 -7.8624,-1.0483 -3.8189,-1.0483 -5.6909,-3.0701 l 1.4976,-1.6474 q 3.8189,3.5194 11.756,3.5194 7.2634,0 10.932,-2.6957 3.744,-2.6957 3.744,-6.2899 0,-3.744 -2.8454,-6.0653 -2.8454,-2.3213 -6.9638,-3.4445 -4.0435,-1.1981 -8.1619,-2.3962 -4.0435,-1.273 -6.889,-3.8938 -2.8454,-2.6208 -2.8454,-6.889 0,-5.7658 3.8189,-8.5363 3.8938,-2.8454 9.8093,-2.8454 z"
       style="font-variant-ligatures:none;fill:#87ccc1;stroke:#87ccc1;stroke-width:0.52;stroke-miterlimit:2"
       id="path44185" /><path
       stroke-miterlimit="2"
       d="m 463.01,400.05 h 2.2464 v 43.43 H 463.01 Z"
       style="font-variant-ligatures:none;fill:#87ccc1;stroke:#87ccc1;stroke-width:0.52;stroke-miterlimit:2"
       id="path44187" /><path
       stroke-miterlimit="2"
       d="m 494.33,399.15 q 9.2851,0 13.179,4.1184 l -1.4976,1.6474 q -3.5942,-3.5194 -11.382,-3.5194 -11.681,0 -11.681,9.2851 0,3.5942 2.8454,5.7658 2.8454,2.0966 6.889,3.2198 4.1184,1.1232 8.1619,2.3962 4.1184,1.1981 6.9638,3.9686 2.8454,2.6957 2.8454,7.1136 0,5.1667 -4.2682,8.2368 -4.2682,3.0701 -12.355,3.0701 -3.9686,0 -7.8624,-1.0483 -3.8189,-1.0483 -5.6909,-3.0701 l 1.4976,-1.6474 q 3.8189,3.5194 11.756,3.5194 7.2634,0 10.932,-2.6957 3.744,-2.6957 3.744,-6.2899 0,-3.744 -2.8454,-6.0653 -2.8454,-2.3213 -6.9638,-3.4445 -4.0435,-1.1981 -8.1619,-2.3962 -4.0435,-1.273 -6.889,-3.8938 -2.8454,-2.6208 -2.8454,-6.889 0,-5.7658 3.8189,-8.5363 3.8938,-2.8454 9.8093,-2.8454 z"
       style="font-variant-ligatures:none;fill:#87ccc1;stroke:#87ccc1;stroke-width:0.52;stroke-miterlimit:2"
       id="path44189" /><path
       stroke-miterlimit="2"
       d="m 553.03,400.05 v 2.2464 h -15.725 v 41.184 h -2.2464 v -41.184 h -15.725 V 400.05 Z"
       style="font-variant-ligatures:none;fill:#87ccc1;stroke:#87ccc1;stroke-width:0.52;stroke-miterlimit:2"
       id="path44191" /><path
       stroke-miterlimit="2"
       d="m 568.96,441.23 h 24.411 l -15.35,-36.16 -16.33,38.41 h -2.3962 l 18.72,-44.179 18.72,44.179 h -27.77 z"
       style="font-variant-ligatures:none;fill:#87ccc1;stroke:#87ccc1;stroke-width:0.52;stroke-miterlimit:2"
       id="path44193" /><path
       stroke-miterlimit="2"
       d="m 608.54,443.48 v -43.43 h 2.2464 l 24.411,39.312 V 400.05 h 2.2464 v 43.43 h -2.2464 l -24.42,-39.39 v 39.39 z"
       style="font-variant-ligatures:none;fill:#87ccc1;stroke:#87ccc1;stroke-width:0.52;stroke-miterlimit:2"
       id="path44195" /><path
       stroke-miterlimit="2"
       d="m 683.09,400.05 v 2.2464 h -15.725 v 41.184 h -2.2464 v -41.184 h -15.725 V 400.05 Z"
       style="font-variant-ligatures:none;fill:#87ccc1;stroke:#87ccc1;stroke-width:0.52;stroke-miterlimit:2"
       id="path44197" /><path
       style="fill:#87ccc1;stroke-width:0.7875"
       d="m 302.6,322.83 c -0.0205,-0.0202 -0.0504,-8.7e-4 -0.0669,0.0429 -0.0165,0.0441 -12.741,31.921 -28.275,70.836 -15.534,38.92 -28.254,70.79 -28.266,70.829 l -0.021,0.0766 h 126.65 l -0.0219,-0.0841 c -0.0123,-0.0464 -6.855,-18.932 -15.207,-41.968 -8.3517,-23.036 -15.196,-41.884 -15.209,-41.884 -0.0136,0 -1.2164,2.4231 -2.6731,5.3842 -1.4562,2.9616 -2.6613,5.3702 -2.6779,5.3527 -0.0162,-0.0171 -7.7162,-15.449 -17.111,-34.292 -9.387,-18.839 -17.093,-34.273 -17.113,-34.294 z m 1.3844,18.862 c 0.37436,0.74653 7.0222,14.079 14.774,29.627 l 14.093,28.27 -6.9421,14.11 c -4.9087,9.9776 -6.9754,14.221 -7.0559,14.486 -0.0968,0.31919 -0.11428,0.4628 -0.11691,0.94579 -0.002,0.4177 0.0188,0.65064 0.078,0.8757 0.0438,0.16857 0.14405,0.4466 0.22242,0.61824 0.0788,0.17163 0.22155,0.42778 0.31744,0.5692 0.0963,0.14143 0.32313,0.39801 0.50353,0.56965 0.18083,0.17164 0.44573,0.38049 0.58847,0.46412 0.1423,0.0836 0.39319,0.20579 0.55739,0.27147 0.16375,0.0652 0.42865,0.14668 0.58891,0.18083 0.15981,0.0337 0.47375,0.0617 0.69748,0.0622 0.22375,4.4e-4 0.5587,-0.0302 0.74435,-0.0683 0.18565,-0.0385 0.48339,-0.13004 0.66159,-0.20404 0.17821,-0.074 0.46719,-0.23031 0.64277,-0.34765 0.17514,-0.11735 0.4431,-0.34853 0.59547,-0.5136 0.15238,-0.16507 0.34021,-0.40589 0.41728,-0.53505 0.0775,-0.12917 3.66,-7.3874 7.9608,-16.129 4.301,-8.742 7.8336,-15.907 7.8502,-15.924 0.0162,-0.0162 4.7883,13.094 10.604,29.134 5.816,16.04 10.581,29.19 10.588,29.223 0.0123,0.0508 -8.0561,0.06 -52.885,0.06 h -52.9 l 0.0293,-0.0766 c 0.0157,-0.0394 10.509,-26.326 23.317,-58.417 12.809,-32.087 23.312,-58.401 23.339,-58.473 l 0.0503,-0.13135 z"
       id="icon" /></g></svg>
